<svg xmlns="http://www.w3.org/2000/svg" version="1.1" xmlns:xlink="http://www.w3.org/1999/xlink" width="512" height="512" x="0" y="0" viewBox="0 0 68 68" style="enable-background:new 0 0 512 512" xml:space="preserve" class=""><g><circle cx="34" cy="34" r="32" fill="#313b5a" opacity="1" data-original="#313b5a" class=""></circle><path fill="#474f6f" d="M61.14 17.04C55.48 26.07 45.44 32.07 34 32.07s-21.48-6-27.14-15.03C12.51 8.01 22.56 2 34 2s21.49 6.01 27.14 15.04z" opacity="1" data-original="#474f6f" class=""></path><path fill="#d0f6ff" d="M38.081 49.946 34 45.516V13.393l6.895 32.742z" opacity="1" data-original="#d0f6ff" class=""></path><path fill="#ffffff" d="m52.55 51.5-14.469-1.554L34 13.393z" opacity="1" data-original="#ffffff" class=""></path><path fill="#8fc8f5" d="M29.919 49.946 34 45.516V13.393l-6.895 32.742z" opacity="1" data-original="#8fc8f5" class=""></path><path fill="#ffffff" d="m15.45 51.5 14.469-1.554L34 13.393z" opacity="1" data-original="#ffffff" class=""></path><path fill="#20273a45" d="M52.55 55.749c0 .674-8.526 1.223-19.027 1.223-10.511 0-19.027-.549-19.027-1.223s8.516-1.223 19.027-1.223c10.501 0 19.027.548 19.027 1.223z" opacity="1" data-original="#20273a45"></path></g></svg>